<svg width="65" height="37" viewBox="0 0 65 37" fill="none" xmlns="http://www.w3.org/2000/svg">
<rect width="65" height="37" rx="4" fill="#2E5480" fill-opacity="0.42"/>
<path d="M34.2562 7.63953C34.6714 7.23004 35.2346 7 35.8217 7C36.4089 7 36.972 7.23004 37.3872 7.63953L47.3517 17.4689C47.7668 17.8785 48 18.434 48 19.0132C48 19.5924 47.7668 20.1479 47.3517 20.5575L37.3872 30.3868C36.9696 30.7847 36.4103 31.0049 35.8297 30.9999C35.2491 30.9949 34.6937 30.7652 34.2832 30.3602C33.8726 29.9552 33.6397 29.4074 33.6347 28.8347C33.6296 28.262 33.8528 27.7102 34.2562 27.2982L40.2504 21.1975H19.2143C18.627 21.1975 18.0638 20.9674 17.6486 20.5577C17.2333 20.1481 17 19.5925 17 19.0132C17 18.4339 17.2333 17.8783 17.6486 17.4687C18.0638 17.059 18.627 16.8289 19.2143 16.8289H40.2504L34.2562 10.7281C33.8411 10.3185 33.6079 9.76303 33.6079 9.18383C33.6079 8.60464 33.8411 8.04915 34.2562 7.63953Z" fill="#F26022"/>
</svg>
