<svg width="65" height="37" viewBox="0 0 65 37" fill="none" xmlns="http://www.w3.org/2000/svg">
<rect width="65" height="37" rx="4" fill="#2E5480" fill-opacity="0.42"/>
<path d="M30.7438 31.3605C30.3286 31.77 29.7654 32 29.1783 32C28.5911 32 28.028 31.77 27.6128 31.3605L17.6483 21.5311C17.2332 21.1215 17 20.566 17 19.9868C17 19.4076 17.2332 18.8521 17.6483 18.4425L27.6128 8.61316C28.0304 8.21527 28.5897 7.9951 29.1703 8.00008C29.7509 8.00506 30.3063 8.23478 30.7168 8.63977C31.1274 9.04475 31.3603 9.5926 31.3653 10.1653C31.3704 10.738 31.1472 11.2898 30.7438 11.7018L24.7496 17.8025L45.7857 17.8025C46.373 17.8025 46.9362 18.0326 47.3514 18.4423C47.7667 18.8519 48 19.4075 48 19.9868C48 20.5661 47.7667 21.1217 47.3514 21.5313C46.9362 21.941 46.373 22.1711 45.7857 22.1711L24.7496 22.1711L30.7438 28.2719C31.1589 28.6815 31.3921 29.237 31.3921 29.8162C31.3921 30.3954 31.1589 30.9508 30.7438 31.3605Z" fill="#FAECE6"/>
</svg>
